<?xml version="1.0" standalone="no"?>
<!DOCTYPE svg PUBLIC "-//W3C//DTD SVG 20010904//EN"
 "http://www.w3.org/TR/2001/REC-SVG-20010904/DTD/svg10.dtd">
<svg version="1.0" xmlns="http://www.w3.org/2000/svg"
 width="512.000000pt" height="512.000000pt" viewBox="0 0 512.000000 512.000000"
 preserveAspectRatio="xMidYMid meet">

<g transform="translate(0.000000,512.000000) scale(0.100000,-0.100000)"
fill="#000000" stroke="none">
<path d="M2270 5114 c-153 -18 -318 -67 -461 -138 -90 -45 -116 -54 -183 -59
-335 -29 -612 -260 -702 -588 -28 -99 -25 -300 4 -403 27 -94 89 -217 137
-274 l35 -40 0 -359 c0 -442 12 -531 95 -719 65 -146 222 -335 348 -419 58
-38 58 -39 55 -84 l-3 -45 -470 -117 c-259 -65 -499 -130 -535 -145 -126 -53
-202 -106 -310 -214 -116 -116 -173 -204 -222 -343 -52 -147 -58 -212 -58
-649 0 -380 1 -401 20 -438 13 -26 34 -47 60 -60 39 -20 54 -20 2334 -20 1662
0 2310 3 2348 11 127 27 242 114 301 227 51 97 57 144 57 416 0 274 -11 344
-72 459 -38 71 -128 171 -187 207 l-40 25 -1 168 c0 196 -11 232 -80 267 -35
18 -58 20 -241 20 -157 0 -200 3 -197 12 3 7 20 69 38 138 l33 125 99 104
c287 301 475 642 562 1021 52 225 75 417 82 675 7 242 -6 417 -33 453 -36 49
-71 67 -127 67 -44 0 -65 -7 -137 -49 -235 -136 -440 -337 -586 -571 -259
-415 -327 -932 -191 -1460 17 -66 33 -131 35 -145 4 -20 -40 -207 -83 -352 -5
-16 -22 -18 -179 -18 -138 0 -181 -3 -207 -16 -32 -15 -45 -12 -468 93 l-435
109 -3 45 -3 44 82 60 c214 157 360 400 404 670 11 66 15 182 15 440 l1 350
81 65 c144 114 240 258 290 435 32 114 32 306 0 418 -80 282 -291 494 -573
578 -69 21 -97 22 -384 24 -170 2 -326 1 -345 -1z m628 -309 c277 -65 456
-353 387 -620 -34 -127 -90 -211 -206 -306 l-74 -60 -140 5 c-346 12 -599 126
-847 384 -77 79 -105 102 -133 108 -90 17 -163 -34 -185 -128 -40 -173 -171
-308 -339 -353 l-50 -13 -31 45 c-125 190 -99 445 64 607 99 99 218 146 367
146 67 0 76 3 192 64 224 117 306 134 672 135 197 0 275 -3 323 -14z m1912
-1066 c-18 -241 -61 -481 -116 -649 -37 -110 -125 -288 -197 -398 -64 -98
-161 -225 -176 -230 -5 -2 -17 48 -27 110 -24 149 -24 406 0 537 58 320 226
622 455 818 l66 56 3 -49 c2 -27 -1 -115 -8 -195z m-2842 104 c226 -184 525
-299 831 -319 l103 -7 -5 -341 c-3 -278 -7 -351 -20 -397 -82 -279 -303 -486
-579 -543 -400 -83 -799 182 -882 586 -13 61 -16 143 -16 396 l0 319 53 12
c136 31 306 147 401 273 28 37 52 68 54 68 1 0 28 -21 60 -47z m42 -1913 c109
-17 253 -11 368 15 17 4 22 1 22 -15 0 -19 -239 -450 -250 -450 -11 0 -250
431 -250 450 0 16 5 19 23 15 12 -3 51 -9 87 -15z m-142 -570 c149 -260 174
-298 208 -317 21 -13 55 -23 74 -23 19 0 53 10 74 23 35 19 60 58 219 338
l181 316 445 -112 446 -111 3 -65 2 -64 -39 -24 c-95 -58 -190 -184 -233 -310
-22 -63 -23 -80 -23 -346 0 -154 4 -299 8 -322 l9 -43 -1121 0 -1121 0 0 150
c0 177 -12 215 -80 250 -50 25 -90 25 -140 0 -68 -35 -80 -73 -80 -250 l0
-150 -200 0 -200 0 0 300 c0 326 8 400 56 507 33 76 104 172 166 228 105 92
168 115 683 244 466 117 470 118 482 97 7 -12 88 -154 181 -316z m2652 0 c0
-182 10 -205 109 -254 89 -45 121 -73 156 -138 l30 -53 3 -247 c3 -233 2 -249
-18 -287 -13 -27 -34 -48 -60 -61 -38 -19 -58 -20 -570 -20 -512 0 -532 1
-570 20 -26 13 -47 34 -60 61 -20 38 -21 54 -18 287 l3 247 30 53 c35 65 67
93 156 138 99 49 109 72 109 254 l0 140 350 0 350 0 0 -140z"/>
</g>
</svg>
