<?xml version="1.0" standalone="no"?>
<!DOCTYPE svg PUBLIC "-//W3C//DTD SVG 20010904//EN"
 "http://www.w3.org/TR/2001/REC-SVG-20010904/DTD/svg10.dtd">
<svg version="1.0" xmlns="http://www.w3.org/2000/svg"
 width="512.000000pt" height="512.000000pt" viewBox="0 0 512.000000 512.000000"
 preserveAspectRatio="xMidYMid meet">

<g transform="translate(0.000000,512.000000) scale(0.100000,-0.100000)"
fill="#363636" stroke="none">
<path d="M1731 4799 c-244 -26 -471 -93 -706 -210 -238 -118 -435 -268 -593
-450 -512 -590 -574 -1399 -156 -2051 l43 -66 -150 -469 c-82 -257 -149 -481
-149 -498 0 -71 75 -145 148 -145 33 0 275 117 757 365 193 100 201 103 231
91 78 -34 79 -33 44 26 -179 302 -280 672 -280 1023 2 779 458 1480 1205 1853
239 119 565 211 808 229 48 3 87 10 87 14 0 16 -304 158 -415 194 -274 89
-591 123 -874 94z"/>
<path d="M2951 4199 c-244 -26 -471 -93 -706 -210 -314 -155 -549 -359 -736
-638 -384 -570 -384 -1312 0 -1882 186 -278 423 -483 736 -638 247 -123 465
-185 740 -212 294 -29 663 22 935 130 l75 29 230 -118 c509 -260 694 -350 725
-350 75 0 150 74 150 147 0 15 -67 239 -149 496 l-149 468 55 87 c405 644 337
1450 -172 2035 -267 306 -672 538 -1087 621 -219 44 -441 56 -647 35z m-321
-1659 c45 -23 80 -80 80 -130 0 -76 -74 -150 -151 -150 -46 0 -108 39 -130 82
-37 72 -14 151 57 194 48 29 92 30 144 4z m600 0 c45 -23 80 -80 80 -130 0
-76 -74 -150 -151 -150 -46 0 -108 39 -130 82 -37 72 -14 151 57 194 48 29 92
30 144 4z m600 0 c45 -23 80 -80 80 -130 0 -76 -74 -150 -151 -150 -46 0 -108
39 -130 82 -37 72 -14 151 57 194 48 29 92 30 144 4z"/>
</g>
</svg>
